<?xml version="1.0" encoding="UTF-8"?>
<!DOCTYPE svg PUBLIC "-//W3C//DTD SVG 1.1//EN" "http://www.w3.org/Graphics/SVG/1.1/DTD/svg11.dtd">
<!-- Creator: CorelDRAW -->
<svg xmlns="http://www.w3.org/2000/svg" xml:space="preserve" width="137.858mm" height="137.858mm" version="1.1" style="shape-rendering:geometricPrecision; text-rendering:geometricPrecision; image-rendering:optimizeQuality; fill-rule:evenodd; clip-rule:evenodd"
viewBox="0 0 25345.39 25345.39"
 xmlns:xlink="http://www.w3.org/1999/xlink"
 xmlns:xodm="http://www.corel.com/coreldraw/odm/2003">
 <defs>
  <style type="text/css">
   <![CDATA[
    .fil0 {fill:#32506E}
   ]]>
  </style>
 </defs>
 <g id="Capa_x0020_1">
  <metadata id="CorelCorpID_0Corel-Layer"/>
  <path class="fil0" d="M12672.69 0c6998.94,0 12672.69,5673.76 12672.69,12672.69 0,6998.94 -5673.76,12672.69 -12672.69,12672.69 -6998.94,0 -12672.69,-5673.76 -12672.69,-12672.69 0,-6998.94 5673.76,-12672.69 12672.69,-12672.69zm-4213.41 19128.11l242.41 37.43c38.55,3.38 27.3,-2.26 66.3,8.13l226.41 53.21c45.76,14.43 3.14,6.32 62.23,12.39 27.96,2.96 39.23,-0.9 69.44,5.2 88.86,17.82 4.96,4.06 54.81,19.84 62.47,19.62 71.04,5.2 131.69,17.37 89.76,18.04 1.36,2.48 54.57,20.06 51.2,16.69 133.05,5.86 191.22,13.75 137.58,19.18 -23.68,16.91 114.12,35.19 56.15,7.45 96.06,-4.74 153.57,14.19l105.31 25.28c63.13,2.02 108.91,-3.62 168.68,17.58 78.91,28.18 159.64,7.91 241.51,19.62 136.2,19.62 -22.32,15.55 113.64,35.63 111.86,16.23 233.18,-7.21 329.24,25.04 55.71,18.94 144.1,13.53 210.62,13.07 79.83,-0.68 150.65,-7.45 223.91,18.72 197.77,70.58 461.85,-34.71 658.26,31.57 50.5,16.91 -33.61,1.58 53.89,20.54 84.11,18.26 1434.42,17.12 1512.21,-9.25 151.77,-50.96 445.6,1.36 627.36,-25.26 102.61,-14.87 42.86,-38.11 262.04,-36.31 77.13,0.46 157.85,11.27 229.32,-13.07l39.47 -16.47c89.98,-25.48 195.51,5.18 289.77,-8.57 130.35,-19.18 -8.13,-10.15 97.64,-32.69 95.16,-20.52 180.19,2.02 270.37,-28.18 59.31,-19.86 68.56,-11.95 136.9,-12.19l554.73 -79.15c88.86,-17.82 4.5,-4.28 54.35,-20.3l745.72 -149.27c56.61,-18.72 69.46,-13.09 136.22,-13.09l0 708.53 -74.64 18.72c-4.52,1.36 -8.79,3.84 -13.51,5.18l-284.36 69.7c-4.52,1.34 -8.81,4.04 -13.31,5.41l-131.91 17.36c-88.86,17.83 -4.74,4.04 -54.81,19.84 -62.47,19.64 -70.8,5.18 -131.69,17.37 -88.84,17.82 -4.74,4.06 -54.81,19.84l-186.26 37.43c-59.77,19.4 -50.96,9.93 -117.72,12.63l-119.5 29.77c-54.79,14.89 -87.05,2.04 -140.04,9.03 -138,18.26 23.22,16.23 -114.12,35.17 -44.2,6.09 -103.05,-4.27 -147.23,2.04 -106.23,14.65 -1.14,25.26 -263.4,34.95 -34.95,1.34 -33.81,0 -65.4,9.03 -4.74,1.34 -9.01,3.6 -13.53,5.17 -112.74,38.13 -267.67,17.15 -361.49,48.72 -55.91,18.72 -144.53,13.53 -211.06,12.85 -38.77,-0.46 -109.83,-3.82 -145.22,3.82 -87.49,18.96 -3.38,3.6 -53.89,20.52 -95.84,32.27 -251.89,13.33 -360.13,13.09 -40.81,-0.22 -92.46,-3.16 -131.69,-1.36 -132.15,5.64 -22.78,38.57 -408.85,38.57 -198.21,0 -1406.9,24.8 -1521.24,-7.91 -4.5,-1.12 -9.01,-3.6 -13.51,-4.96 -4.3,-1.56 -8.59,-4.27 -12.85,-5.85 -4.3,-1.34 -8.59,-4.06 -13.09,-5.64l-154.47 -13.29c-93.58,1.12 -187.16,0.22 -280.74,1.12 -99.45,0.9 -110.49,-17.36 -189.42,-34.29 -112.54,-24.34 -253.48,18.05 -356.3,-16.68l-123.36 -25.7c-64.24,-0.68 -138.9,10.59 -198.65,-6.55 -4.74,-1.36 -9.03,-3.62 -13.53,-5.18 -85.23,-28.64 -165.74,-12.41 -254.6,-25.04 -92.22,-13.29 -26.14,-6.99 -56.81,-17.82l-204.07 -19.62c-93.38,-12.85 -30.91,-29.77 -187.62,-36.07l-614.5 -112.76c-59.09,-6.09 -16.45,1.8 -62.01,-12.41l-186.72 -37.19c-5.86,-1.8 -20.74,-9.03 -26.6,-10.83 -4.52,-1.36 -9.03,-3.38 -13.75,-4.74l-197.55 -44.64c-55.71,-5.2 -91.12,9.69 -110.73,-38.79 -54.11,-21.86 -39.22,-83.89 -38.09,-148.17l0.9 -560.36zm-1566.36 -9733.13c33.17,0.9 21.42,0 48.26,7.89 4.06,1.12 9.93,2.94 14.21,4.52l173.87 87.04c3.82,2.04 8.57,4.28 12.39,6.31l62.25 31.13c3.6,1.8 8.57,4.28 12.41,6.1l62.67 30.67c4.96,2.46 20.08,9.23 25.04,11.93l190.08 220.33c23.02,49.6 -22.78,19.18 32.93,41.72l0 633.88c-71.26,25.94 -92.68,109.13 -124.25,174.11l-273.09 472.87c-6.99,14.19 -16.91,34.73 -25.92,48.7l-62.23 86.81c-2.72,4.96 -9.71,20.08 -12.19,25.26l-70.36 116.14c-89.74,119.74 -8.33,36.09 -78.93,144.54l-285.25 423.26c-22.56,-61.99 -74.64,-66.3 -121.1,-102.83 -52.54,-41.26 -3.82,-13.53 -56.37,-55.47 -27.06,-21.66 -6.32,-5.18 -34.07,-21.86 -20.96,-12.65 -12.61,-4.96 -36.07,-19.86l-771.66 -552.03c-3.62,-2.26 -8.59,-4.52 -11.95,-6.77l-112.54 -92.68c-20.96,-12.41 -12.85,-4.74 -36.31,-19.64l-190.76 -144.76c-27.52,-21.88 -5.42,-4.95 -34.05,-21.88l-499.27 -358.55c-3.38,-2.02 -7.89,-5.17 -11.29,-7.21l-48.24 -26.6c-66.98,-43.08 -76,-96.96 -162.14,-98.76l0 -111.86c66.96,-24.36 59.31,-51.64 88.4,-98.32l671.09 -969.65c2.02,-3.4 4.96,-8.13 7.23,-11.29l107.55 -153.79c2.26,-3.16 5.2,-7.67 7.45,-11.05l355.62 -520.67c2.02,-3.62 4.72,-8.37 6.75,-11.75l566.92 -831.65c2.26,-3.38 5.63,-7.65 7.89,-10.81l374.78 -538.96c78.71,-131.03 187.18,-248.71 295.41,-356.97l158.76 -139.82c3.62,-2.02 8.59,-4.28 12.19,-6.32l586.3 -383.13c3.38,-2.46 7.65,-5.63 11.05,-7.65l48.7 -25.94c3.84,-2.04 8.81,-4.06 12.63,-6.1 3.84,-1.78 8.79,-4.04 12.63,-6.07 3.82,-1.82 8.57,-4.28 12.41,-6.09l455.73 -197.11c4.5,-1.34 9.47,-2.92 14.21,-4.27l41.04 -14.89c4.5,-1.58 9.25,-3.38 13.75,-4.72l755.66 -232.74 61.11 88.18c17.36,27.06 9.47,21.22 26.38,48.02l108.47 115.46c137.78,137.58 137.1,147.03 287.29,253.48l536.7 339.61c4.28,1.8 9.23,3.38 13.75,4.96 4.74,1.56 9.71,2.7 14.43,4.27l345.47 139.38c4.5,1.58 9.25,3.38 13.75,4.72l182.21 60.43c5.63,1.8 21.18,8.37 27.04,10.17l123.14 25.92c5.85,1.58 21.42,8.11 27.27,10.15 77.57,26.82 70.14,37.89 155.39,49.38 24.78,3.38 45.98,0.46 70.8,4.06l219.85 59.77c4.52,1.34 9.03,3.59 13.77,4.95 80.05,21.2 103.49,-3.38 210.16,32.03 66.52,22.32 134.63,1.58 207.02,16.91 200.01,41.94 102.61,33.15 359.23,32.47 138.68,-0.44 119.96,39.69 258.88,39.23 148.83,-0.22 638.17,24.58 752.48,-13.97 50.52,-16.91 -33.59,-1.58 53.91,-20.54 134.4,-29.09 227.98,24.6 432.95,-33.15 75.1,-21.2 149.53,3.16 221.69,-20.96 52.99,-17.59 -35.41,-2.24 54.11,-20.3 111.86,-22.78 142.3,0.24 318.19,-54.81l447.38 -111.84c4.52,-1.58 9.25,-3.62 13.77,-5.18l383.35 -138.7c4.52,-1.34 9.49,-3.14 13.75,-4.72l100.57 -48.72c4.3,-1.56 9.27,-3.14 13.77,-4.72l85.69 -26.16c4.28,-1.58 9.03,-3.82 13.07,-5.64l122.67 -82.29c4.96,-2.94 19.62,-10.17 24.58,-12.85l75.32 -36.55c3.84,-1.78 8.81,-4.28 12.63,-6.09 3.82,-1.8 8.59,-4.28 12.41,-6.09l465.88 -354.5c64.05,-63.8 128.75,-121.54 174.31,-198.87 2.04,-3.4 4.3,-8.59 6.55,-11.95 32.93,-51.64 79.15,-70.14 98.99,-124.95l74.42 0c21.66,53.45 31.35,32.27 110.95,57.07l1393.83 563.96c14.19,7.23 34.73,16.91 48.48,25.94 11.05,7.23 20.3,16.91 41.94,32.71l282.56 202.49c145.22,92.22 280.76,227.98 372.76,372.76 37.43,58.85 -25.7,-29.32 15.33,22.1l965.14 1384.12c16.68,26.16 10.15,21.66 26.84,47.8l74.64 111.86c2.24,3.4 5.17,7.89 7.43,11.29l60.21 88.84c2.26,3.38 4.74,8.35 7,11.73 2.02,3.38 5.18,7.89 7.43,11.27l137.34 179.51c42.18,52.99 -23.46,-38.13 15.33,22.08l155.37 236.1c12.63,20.52 5.41,12.87 20.06,35.87l129.01 187.84c2.24,3.6 4.5,8.57 6.53,12.17l274.67 396.66c7.89,11.95 16.91,20.98 32.23,42.18l109.83 170.04c16.69,27.71 0.22,6.97 21.88,34.03l70.8 78.49c17.36,27.04 8.79,20.74 26.38,48.02l60.43 88.86c26.84,46.9 -12.85,4.28 28.86,45.78 27.96,27.72 6.31,13.53 46.46,28.18l0 111.86c-99,2.24 -46.02,-2.72 -85.25,26.82 -53.45,40.37 0.9,11.73 -55.01,56.83l-331.04 228.21c-18.72,11.71 -9.93,7.23 -32.25,23.68l-204.99 149.29c-3.6,2.02 -8.79,4.04 -12.39,6.29l-522.03 372.78c-89.76,53.65 -163.04,135.08 -250.31,197.31l-331.94 227.52c-3.14,2.26 -7.45,5.66 -10.61,7.91l-42.4 32.25c-3.38,2.24 -8.33,4.74 -11.71,7l-105.09 81.39c-50.5,44.42 -106.43,44.66 -130.79,111.62l-80.29 -87.26c-2.02,-3.62 -4.95,-8.35 -7.21,-11.73l-152.89 -238.58c-2.24,-3.16 -5.41,-7.67 -7.67,-11.05l-236.54 -415.83c-15.79,-20.52 -13.55,-15.09 -24.36,-31.57l-25.72 -48.92c-7.67,-15.55 -4.27,-10.15 -11.71,-25.48l-273.31 -472.88c-16.01,-29.77 -10.83,-20.3 -29.31,-45.1 -8.37,-10.83 -23.68,-28.42 -25.28,-30.45l-28.63 -46.22c-59.99,-113.9 -27.28,-350.66 -29.54,-567.6l57.07 -241.29c2,-2.92 17.36,-22.32 25.48,-30.45l78.47 -52.09c3.82,-1.8 8.79,-4.06 12.85,-5.86 4.96,-2.48 20.08,-9.45 25.26,-11.95l435.45 -254.36c18.02,-17.82 38.55,-35.63 54.55,-57.51 65.63,-89.52 71.94,-201.59 56.15,-315.03l-21.86 -71.26c-21.64,-62.91 -34.95,-102.37 -79.15,-144.76l-112.54 -111.17c-25.46,-20.76 -7.21,-6.77 -33.15,-22.56 -136.64,-82.99 -305.78,-41.94 -434.31,2.7l-89.08 41.5c-54.57,27.96 30.23,-15.09 -24.58,12.65 -11.73,5.85 -22.1,11.03 -37.43,18.72 -3.84,1.8 -8.57,4.27 -12.39,6.09l-74.66 37.43c-3.6,1.8 -8.57,4.27 -12.39,6.07l-211.76 124.04c-20.96,12.63 -12.61,4.5 -36.29,19.62 -77.13,48.92 -189.42,166.2 -246.03,238.8 -42.4,54.35 24.14,-39.47 -14.89,22.1l-191.66 386.51c-20.52,86.13 25.72,131.47 -45.1,159.88l0 8465.37c-16.23,0 -39.23,-1.36 -54.79,1.12l-70.8 22.32c-4.52,1.58 -9.03,3.62 -13.77,4.72l-494.98 101.95c-4.28,1.36 -8.79,3.82 -13.31,5.41l-121.76 27.28c-4.5,1.36 -9.01,3.84 -13.31,5.2 -24.34,8.11 29.78,5.85 -57.51,17.12l-179.71 25.5c-59.53,19.62 -134.85,5.41 -197.75,25.92 -51.64,17.13 35.17,2.48 -54.13,20.54l-195.51 28.17c-89.31,30 -183.12,-4.04 -272.43,25.94 -74.63,25.02 -193.47,14.43 -273.97,43.08l-92 19.84c-78.47,3.38 -224.15,-2.92 -280.98,17.36 -29.53,10.61 34.51,4.28 -56.83,17.82 -110.49,16.01 -266.09,-13.75 -371.18,1.82 -102.61,14.89 -42.62,37.65 -261.8,36.31l-429.57 -0.68c-80.97,6.97 -39.03,17.8 -114.8,34.27l-1170.14 2.7c-102.83,-14.89 -42.62,-37.65 -261.8,-36.29 -168.21,0.88 -412.21,23.44 -553.83,-24.36 -102.83,-34.73 -243.77,7.67 -356.29,-16.69 -78.71,-16.9 -89.98,-35.17 -189.42,-34.27 -276.7,2.92 -259.32,-37.21 -392.38,-36.53 -133.27,0.66 -97.18,-23.46 -187.4,-36.31 -70.36,-10.39 -147.25,10.37 -214.9,-8.79 -4.72,-1.36 -9.01,-3.62 -13.53,-5.2l-39.47 -16.45c-36.07,-9.91 -28.17,-6.55 -66.5,-8.11 -23.92,-0.9 -49.4,2.24 -73.52,-0.9 -94.94,-12.63 -24.58,-6.1 -57.29,-17.59l-423.02 -80.05c-41.5,-13.55 -3.84,-8.81 -61.57,-13.09l-270.83 -46.22c-4.74,-1.36 -9.47,-3.16 -13.97,-4.74 -117.72,-36.75 -225.73,-39.68 -335.57,-74.64l-125.59 -23.44 0 -8241.46c-59.07,-23.88 -38.79,23.02 -36.31,-206.1 0.44,-40.13 1.34,-66.52 -8.81,-103.27l-10.37 -26.62c-1.58,-4.5 -4.04,-9.01 -5.41,-13.31l-54.79 -206.54c-1.36,-4.52 -2.7,-9.71 -4.3,-14.21l-28.63 -64.49c-1.8,-3.84 -4.5,-8.57 -6.31,-12.17 -2.04,-3.84 -4.52,-8.59 -6.32,-12.41 -47.58,-95.62 -61.33,-84.33 -116.82,-162.82 -2.46,-3.38 -5.17,-8.13 -7.21,-11.49 -87.94,-139.14 -66.76,-72.16 -181.07,-173.19 -21.88,-19.4 -30.23,-35.63 -57.05,-55.03l-123.36 -63.13c-112.98,-66.76 -53.89,-57.29 -221.43,-114.12l-52.1 -22.54c-1.58,-0.68 -22.32,-12.41 -23.9,-13.31l-38.33 -17.59c-113.42,-43.74 -228.88,-82.29 -371.86,-43.5 -57.49,15.55 -116.14,63.58 -156.27,104.83 -49.84,50.98 -103.49,92.68 -138.22,160.12 -2.04,3.62 -4.52,8.35 -6.32,12.19 -2.48,5.39 -9.47,20.06 -11.49,25.92 -22.34,64.95 -15.55,160.56 -12.87,232.26 3.38,87.27 10.17,94.04 51.66,153.57 2.24,3.16 5.63,7.45 7.89,10.61 40.36,53.67 51.63,23.22 53.65,114.1zm3058.05 -3990.03c81.63,-1.8 66.3,-16.01 74.64,-18.72l27.28 -9.93c29.32,-7.89 21.2,-3.84 47.14,-8.79l545.71 -125.39c105.09,-33.37 305.78,-40.59 410.87,-74.18l181.98 -23.24c162.12,-4.96 26.16,-19.62 149.07,-37.21 53.65,-7.89 131.01,5.86 184.68,-1.8 127.41,-18.48 -43.52,-29.53 356.51,-35.17 71.5,-0.92 83.89,-20.3 151.31,-34.95l1153.22 -4.3c145.68,12.65 0.24,32.27 165.74,39.25 87.95,3.84 189.66,-16.47 277.38,2.48 108.45,23.44 -26.82,6.53 81.85,29.77 53.45,11.49 128.53,-1.58 183.56,3.16 147.04,12.15 -1.12,33.59 165.98,38.77 28.86,0.92 66.52,-3.6 94.92,-1.34l247.39 50.95c94.72,30.23 152.89,21.42 264.29,52.54l79.39 13.99c4.96,1.12 9.93,2.26 14.65,3.82l227.75 52.1c26.84,8.35 8.35,3.82 44.42,11.27 91.34,18.5 239.26,75.1 314.81,76.9l0 74.4c-55.25,20.08 -70.58,64.05 -124.93,98.99l-135.3 88.19c-3.84,2.02 -8.81,4.28 -12.41,6.31l-62.91 30.45c-3.84,1.8 -8.57,4.27 -12.41,6.09 -3.82,2.02 -8.79,4.28 -12.41,6.31l-62.23 31.13c-3.82,1.8 -8.57,4.28 -12.39,6.09 -3.84,2.02 -8.59,4.28 -12.41,6.32l-62.25 31.13c-127.17,64.26 -259.98,99.43 -394.84,145.67l-218.51 61.11c-26.16,5.18 -27.96,2.26 -51.64,4.5l-292.71 61.55c-63.81,20.98 -163.48,1.8 -234.98,25.94 -39.45,13.09 21.22,15.55 -87.02,25.04 -82.55,7.21 -176.59,-14.67 -257.98,2.92 -138.02,29.77 -41.95,34.95 -246.03,33.61 -168.9,-0.92 -924.55,23.88 -1036.41,-7.89l-83.21 -28.44c-97.18,-14.19 -214.24,16.01 -303.32,-13.97 -175.89,-59.09 -125.81,8.35 -273.97,-42.84l-386.51 -79.61c-4.5,-1.58 -9.03,-3.6 -13.75,-4.74 -30.23,-8.33 -20.52,-4.06 -47.14,-9.01l-270.83 -83.43c-4.5,-1.36 -9.47,-3.16 -13.75,-4.74 -15.79,-5.41 -11.73,-4.72 -27.5,-9.91l-533.55 -268.15c-21.42,-12.85 -12.15,-4.04 -36.29,-19.62 -48.92,-31.33 -75.1,-80.95 -124.93,-98.99l0 -74.4zm-633.88 -596.69l-223.93 0c-28.42,70.8 -73.52,24.14 -159.44,45.32 -4.96,1.36 -9.25,3.62 -13.97,4.96l-26.62 10.61c-4.5,1.34 -9.23,3.38 -13.97,4.74 -33.61,9.23 -32.47,4.95 -63.36,11.05l-180.19 43.74c-4.72,1.12 -9.47,2.92 -14.21,4.28l-124.03 43.76c-4.49,1.56 -9.25,3.6 -13.75,4.96l-163.94 41.26c-4.5,1.34 -9.47,3.16 -13.97,4.5l-56.59 18.04c-4.3,1.58 -9.03,3.6 -13.55,5.2l-70.8 22.32c-4.72,1.56 -9.69,2.7 -14.43,4.28 -4.28,1.56 -9.47,3.16 -13.75,4.96l-186.5 74.63c-4.04,1.6 -9.01,3.6 -13.07,5.2l-144.99 60.21c-4.76,1.56 -9.93,2.7 -14.45,4.28 -4.5,1.56 -9.47,3.14 -13.75,4.72l-38.57 17.36c-5.18,2.7 -19.38,10.39 -24.56,12.87 -3.6,2.02 -8.57,4.5 -12.19,6.53l-136.64 68.34c-3.84,2.02 -8.59,4.5 -12.43,6.31l-894.56 522.71c-3.36,2.04 -8.11,4.76 -11.27,7.23 -4.5,3.16 -16.45,13.09 -20.52,16.69l-57.27 54.81c-3.16,2.24 -7.89,4.95 -11.29,7.19 -94.94,60.21 -168,137.8 -248.05,218.08 -49.82,49.6 -99.45,99.45 -149.27,149.05 -12.41,12.41 -24.8,24.58 -37.65,36.97l-214.92 288.43c-15.79,21.88 -24.34,30 -32.25,42.4l-186.94 260.44c-17.36,27.08 -9.03,20.76 -26.6,48.26l-695.01 1020.41c-2.02,3.36 -4.27,8.57 -6.53,11.95l-80.95 124.25c-29.77,46.22 -40.37,40.37 -70.8,78.27 -42.19,52.99 23.44,-38.13 -15.11,22.08l-74.2 112.54c-16.68,25.92 -10.15,21.64 -26.84,47.58 -7.89,11.95 -16.91,20.98 -32.23,42.4l-206.34 315.69c-30.23,38.11 -40.83,32.03 -70.6,78.49l-94.24 148.39c-2.04,3.36 -4.52,8.33 -6.77,11.71l-164.62 245.57c-15.11,20.76 -25.02,31.13 -32.25,42.4l-112.3 148.63c-2.26,3.36 -4.74,8.55 -6.77,11.93l-317.51 484.15c-2.24,3.4 -4.96,8.35 -7.21,11.49l-71.5 77.59c-2.48,3.38 -5.18,8.13 -7.21,11.51l-26.62 48.24c-2.02,3.4 -5.18,7.91 -7.43,11.05l-60.21 88.86c-2.26,3.6 -4.72,8.35 -6.99,11.73l-75.56 148.39c-26.6,76.89 -41.7,228.66 -5.41,314.13 31.59,74.63 73.96,166.4 144.78,209.48l80.51 49.84c33.13,29.09 3.82,8.79 36.73,37.89 4.06,3.6 16.01,13.75 20.54,16.91 3.14,2.24 8.11,4.95 11.49,7.19 3.4,2.26 8.37,4.52 11.97,6.56l441.54 304.42c32.91,29.09 3.6,8.79 36.53,37.89 4.27,3.59 16,13.51 20.52,16.91 3.36,2.24 8.11,4.95 11.49,6.99l36.53 19.38c3.62,2.04 8.59,4.52 12.17,6.77 3.38,2.04 8.13,4.74 11.27,7.23 34.97,24.58 42.86,46.68 77.82,71.48l1079.92 765.81c56.15,32.93 38.09,43.96 124.71,99l89.96 59.29c29.54,28.18 -7.67,1.58 37.21,37.43l223.69 149.07c29.78,28.18 -7.65,1.56 37.21,37.43l81.65 48.92c3.16,2.26 7.43,5.86 10.59,8.13l239.71 170.47c58.87,37.43 -29.54,-25.7 22.1,15.11l226.63 165.08c3.38,2.02 8.11,4.72 11.51,6.99 3.36,2.04 7.89,5.18 11.27,7.45l109.15 58.63c63.13,20.74 112.96,45.1 187.38,29.31l140.7 -47.36c5.42,-2.02 20.98,-8.33 26.4,-10.81 129.43,-57.75 212.2,-201.61 271.71,-324.74l227.55 -369.14c28.17,-27.96 6.31,-13.75 46.44,-28.2 0,2342.98 0,4686.18 0,7029.38 0,178.35 -36.75,875.63 23.46,1002.14l261.14 260.88c5.17,2.26 20.28,9.49 25.9,11.29 42.4,14.41 8.81,3.6 45.56,10.37l92.02 19.84c4.5,1.58 9.25,3.62 13.51,5.18 4.52,1.58 9.25,3.6 13.55,4.96l354.92 92.68c4.74,1.36 9.49,3.4 13.99,4.74l311.19 61.55c90.44,9.27 -38.55,-10.37 33.61,3.84l377.26 88.84c67.42,23.24 163.26,16.45 223.93,37.21l93.14 18.72c98.54,8.79 44.2,28.42 167.3,37.65 112.76,8.81 95.62,-11.05 200.01,23.92 78.73,26.38 131.03,0.66 207.03,16.68 58.41,12.41 98.53,35.41 190.08,33.61 23.9,-0.44 70.36,-2.26 92.46,0.9l83.21 28.64c66.76,18.94 146.12,3.38 217.15,6.31 161.26,6.77 22.56,33.15 183.8,40.13 71.72,2.94 154.91,-5.86 226.63,-2.7 131.25,5.64 27.28,39.01 390.13,38.57 297.88,-0.24 240.15,39.69 409.51,37.87l1772.44 -0.22c194.17,2.04 175.21,-38.55 391.01,-37.65 100.13,0.22 230.94,18.04 322.71,-13.09 96.5,-32.23 171.15,-23.44 293.81,-23.22 80.97,0.22 109.83,-26.16 186.26,-37.43 60.67,-8.81 159.67,3.14 224.15,0.44 162.38,-6.77 22.12,-34.49 184.26,-39.45l181.76 -23.46c78.69,-26.36 131.01,-0.68 207,-16.68 64.04,-13.55 88.86,-32.47 191,-32.93l1257.39 -252.8c4.96,-1.36 9.71,-2.7 14.89,-3.82 45.1,-10.59 48.26,-4.96 93.12,-18.5l88.18 -23.9c25.94,-4.96 17.82,-0.9 47.12,-8.79 4.76,-1.36 9.27,-3.16 13.99,-4.74l274.89 -79.39c4.06,-1.56 8.79,-4.04 12.85,-5.85l111.84 -55.93c73.52,-41.72 99.9,-109.37 136.66,-180.17l38.11 -129.89c10.39,-288.43 -1.58,-604.58 -1.58,-896.37 0,-2343.2 0,-4686.4 0,-7029.38 61.81,22.34 57.75,45.34 81.63,86.15l166.44 262.25c2.26,3.4 5.18,8.13 7.21,11.75 2.7,4.72 10.15,19.38 12.87,24.34l54.55 113.2c1.8,3.84 4.06,8.81 6.1,12.63 34.05,67.9 95.16,133.49 157.17,178.39l59.75 33.37c4.06,1.8 8.79,4.06 13.07,5.63l124.95 43.3c4.72,1.58 9.23,3.62 13.97,4.96 54.13,14.87 109.59,7.45 161.24,-10.37 4.28,-1.58 8.79,-3.82 13.31,-5.18l259.98 -150.41c3.4,-2.02 8.37,-4.74 11.95,-6.78l297.89 -224.13c3.62,-2.04 8.59,-4.28 12.19,-6.31l23.9 -13.31c3.36,-2.24 8.13,-5.18 11.27,-7.45l225.95 -165.74c3.38,-2.02 8.57,-4.52 11.97,-6.55l100.11 -67.88c3.6,-2.02 8.57,-4.28 12.19,-6.32 3.6,-2 8.55,-4.49 11.95,-6.75l100.57 -85.93c3.36,-2.02 8.57,-4.49 11.95,-6.53l105.31 -81.19c4.06,-3.6 16.01,-13.75 20.52,-16.91l123.81 -81.17c3.36,-2.26 8.33,-4.74 11.73,-6.99 3.6,-2.02 8.55,-4.28 12.17,-6.55 3.6,-2.04 8.81,-4.28 12.17,-6.31l248.95 -179.95c3.6,-2.26 8.57,-4.52 12.19,-6.55l172.51 -125.83c36.53,-25.7 31.33,-34.97 66.96,-63.37 53,-42.4 -38.09,23.46 22.12,-15.31 3.36,-2.26 8.57,-4.52 11.95,-6.56l148.59 -94.02c46.46,-29.77 40.37,-40.37 78.49,-70.58l568.49 -400.94c3.6,-2.04 8.81,-4.28 12.41,-6.55 3.38,-2.02 8.57,-4.52 11.95,-6.55 60.21,-38.77 -30.89,26.84 22.1,-15.33l214.66 -158.08c3.62,-2.02 8.59,-4.28 12.19,-6.53 35.63,-21.22 37.43,-45.12 112.54,-92.48 73.06,-46.22 115.68,-82.29 155.13,-161.9 2.04,-3.84 4.3,-8.57 6.32,-12.41 84.33,-166.64 64.27,-362.61 -41.27,-512.56l-178.81 -250.09c-2.26,-3.14 -5.88,-7.43 -8.13,-10.59l-862.1 -1263.48c-0.66,-0.9 -32.25,-40.83 -32.93,-41.73l-34.27 -58.85c-2.02,-3.38 -5.18,-7.89 -7.43,-11.27l-107.35 -153.57c-2.24,-3.38 -5.18,-7.89 -7.45,-11.27l-287.97 -420.56c-2.24,-3.4 -5.18,-7.91 -7.45,-11.29 -0.66,-1.12 -32.03,-40.58 -32.69,-41.72l-34.51 -58.85c-2.02,-3.38 -5.18,-7.91 -7.43,-11.27l-32.71 -41.72c-2.26,-3.4 -5.18,-7.91 -7.45,-11.29l-26.84 -47.56c-2.24,-3.4 -5.17,-8.13 -7.43,-11.29l-90.88 -133.03c-29.1,-32.95 -8.57,-3.84 -37.67,-36.77l-199.77 -303.74c-2.04,-3.4 -5.2,-7.91 -7.46,-11.29l-40.13 -52.99c-2.24,-3.38 -4.72,-8.35 -6.99,-11.73l-246.69 -349.98c-2.26,-3.16 -5.18,-7.89 -7.45,-11.27l-274.43 -396.68c-57.73,-101.23 -268.81,-286.83 -400.26,-420.1l-60.21 -51.64c-3.38,-2.26 -8.35,-4.5 -11.95,-6.77l-345.7 -250.98c-3.16,-2.24 -7.46,-5.64 -10.61,-7.91 -22.1,-16.22 -30.67,-25.46 -41.94,-32.69 -13.77,-9.03 -34.27,-18.72 -48.94,-25.72l-50.74 -23.88c-29.77,-16.23 -20.52,-11.05 -45.1,-29.54 -18.72,-13.97 -32.69,-26.82 -41.72,-32.69l-347.5 -174.55c-5.18,-2.7 -19.84,-9.93 -24.8,-12.63l-1018.15 -398.92c-4.74,-1.56 -22.56,-8.33 -27.28,-9.93l-70.58 -22.76c-4.28,-1.58 -9.01,-3.6 -13.53,-5.18 -5.64,-1.82 -21.2,-8.35 -27.04,-10.15l-430.95 -91.12c-51.86,-16.91 -20.08,17.82 -40.83,-33.59l-223.91 0c-14.89,-41.73 -12.19,-37.21 -49.38,-62.47l-1186.13 -454.61c-5.42,-1.36 -10.39,-1.8 -15.79,-2.92l-63.59 -11.05c-4.72,-1.36 -9.25,-3.38 -13.75,-4.74l-144.56 -23.44c-92.22,-3.62 -109.13,-34.73 -204.74,-37.43 -118.18,-3.38 -108.69,-38.11 -222.59,-38.57l-161.24 -6.55c-187.82,-53.45 -264.05,-8.13 -417.16,-30.43 -151.33,-22.12 21.86,-36.53 -355.16,-36.31 -183.35,0 -1204.21,-24.14 -1316.04,7.67 -182.66,52.09 -251.21,6.09 -417.18,30.43 -130.35,19.18 8.11,9.93 -97.64,32.71 -38.57,8.13 -87.72,3.6 -127.65,2.94l-142.72 25.02c-73.3,24.12 -139.6,6.77 -210.84,31.57l-237.46 42.4c-41.94,13.31 -13.53,4.74 -60.89,13.53l-522.95 129.67c-4.04,1.56 -8.79,4.28 -12.63,6.09 -3.82,1.8 -8.33,4.74 -11.95,6.55l-610.88 284.34c-47.12,32.03 -88.38,37.21 -109.35,95.62z"/>
 </g>
</svg>
